Coordinates
version=1
nRows=18
nColumns=22
inDegrees=yes

Units are S.I. units (second, meters, Newtons, ...)
If the header above contains a line with 'inDegrees', this indicates whether rotational values are in degrees (yes) or radians (no).

endheader
time	pelvis_tilt	pelvis_list	pelvis_rotation	pelvis_tx	pelvis_ty	pelvis_tz	hip_flexion_r	hip_adduction_r	hip_rotation_r	knee_angle_r	ankle_angle_r	subtalar_angle_r	hip_flexion_l	hip_adduction_l	hip_rotation_l	knee_angle_l	ankle_angle_l	subtalar_angle_l	lumbar_extension	lumbar_bending	lumbar_rotation
      0.01000000	     -9.03891247	     -2.49550015	     -0.35954243	     -0.99211669	      0.88291866	     -0.55151889	      7.36215452	     -0.98944926	      5.21379117	     -6.21020251	     12.51264104	     -0.68979560	      4.85365737	     -5.13542878	    -11.78480257	     -8.11030026	     14.58242845	      8.27554928	      6.02069988	      1.57026665	     12.22907377
      0.02000000	     -9.03426801	     -2.49639100	     -0.37597397	     -0.99212008	      0.88292684	     -0.55158449	      7.36105749	     -0.99256151	      5.21556866	     -6.21282267	     12.51232619	     -0.69014356	      4.84770181	     -5.13212030	    -11.78299910	     -8.11588371	     14.58197999	      8.27552772	      6.02947173	      1.57076248	     12.22173822
      0.03000000	     -9.02780136	     -2.48895546	     -0.40840207	     -0.99216541	      0.88294066	     -0.55163321	      7.36794805	     -1.00246839	      5.25485953	     -6.22577866	     12.50715754	     -0.69028950	      4.83803152	     -5.11980737	    -11.80738678	     -8.11660609	     14.58631613	      8.27212499	      6.02842032	      1.56505533	     12.18863421
      0.04000000	     -9.02204088	     -2.48458905	     -0.46860215	     -0.99221731	      0.88295583	     -0.55161175	      7.37725782	     -1.00369614	      5.29826065	     -6.23273599	     12.49658784	     -0.68654963	      4.83183954	     -5.11920834	    -11.87453530	     -8.13387807	     14.59252330	      8.26078285	      6.02884477	      1.55960523	     12.20412575
      0.05000000	     -9.02196475	     -2.49866108	     -0.52658856	     -0.99230254	      0.88296478	     -0.55156390	      7.39530305	     -0.98289087	      5.29028068	     -6.23899423	     12.48318210	     -0.67948758	      4.83550611	     -5.14095096	    -11.91673062	     -8.15256014	     14.60205267	      8.25404108	      6.03108532	      1.57135046	     12.22315456
      0.06000000	     -9.02640490	     -2.52400256	     -0.59418059	     -0.99243270	      0.88297220	     -0.55144053	      7.42746940	     -0.94390478	      5.25096631	     -6.25318179	     12.45936756	     -0.66800372	      4.85149715	     -5.18260910	    -11.97212314	     -8.18308158	     14.61477301	      8.25018671	      6.03184511	      1.59011026	     12.24028409
      0.07000000	     -9.05333028	     -2.58511498	     -0.68305823	     -0.99264580	      0.88294698	     -0.55118152	      7.50745647	     -0.85386181	      5.19649062	     -6.29856615	     12.42340931	     -0.63381514	      4.91652247	     -5.28027731	    -12.05489911	     -8.26126829	     14.66841165	      8.25853856	      6.04909652	      1.64210230	     12.26034464
      0.08000000	     -9.13391055	     -2.65483904	     -0.77479256	     -0.99294475	      0.88284722	     -0.55084303	      7.65156631	     -0.74915026	      5.06892310	     -6.33964173	     12.38945422	     -0.56902585	      5.06239429	     -5.39794793	    -12.13343711	     -8.37339538	     14.73490723	      8.31304942	      6.11949755	      1.69494101	     12.30866682
      0.09000000	     -9.18572435	     -2.74914627	     -0.88295117	     -0.99328018	      0.88279521	     -0.55039019	      7.78139163	     -0.60798319	      4.90698593	     -6.40453236	     12.35095060	     -0.51862075	      5.17599786	     -5.55259693	    -12.22005280	     -8.48617890	     14.79604852	      8.35150243	      6.14899236	      1.76665255	     12.37598337
      0.10000000	     -9.25337822	     -2.84742773	     -0.99575828	     -0.99365280	      0.88272412	     -0.54989900	      7.93662026	     -0.45897468	      4.72113657	     -6.47970031	     12.30191858	     -0.46356573	      5.31342159	     -5.71620412	    -12.31661237	     -8.60856339	     14.85959112	      8.39938750	      6.19188219	      1.84108660	     12.44885608
      0.11000000	     -9.32293622	     -2.94095609	     -1.10557807	     -0.99402471	      0.88264843	     -0.54942202	      8.09401645	     -0.31588513	      4.54342384	     -6.55714177	     12.25546920	     -0.40812435	      5.45476239	     -5.87412798	    -12.41083792	     -8.73474424	     14.92527916	      8.45051411	      6.23783686	      1.90976416	     12.52464978
      0.12000000	     -9.38724223	     -3.01780261	     -1.20590641	     -0.99436963	      0.88257604	     -0.54902830	      8.23867138	     -0.19728016	      4.39410243	     -6.62776552	     12.21254532	     -0.35757160	      5.58489497	     -6.00565923	    -12.49795012	     -8.84973992	     14.98494585	      8.49929062	      6.28067936	      1.96609975	     12.59476267
      0.13000000	     -9.43271523	     -3.07734601	     -1.29437467	     -0.99466815	      0.88252515	     -0.54874114	      8.35139010	     -0.10594299	      4.28884836	     -6.68725108	     12.18011710	     -0.31963197	      5.68523050	     -6.10752469	    -12.57084604	     -8.94729509	     15.03406904	      8.53310892	      6.30537514	      2.01152547	     12.65928981
      0.14000000	     -9.43674468	     -3.09715805	     -1.35976537	     -0.99487240	      0.88253669	     -0.54859328	      8.39140725	     -0.07054519	      4.20462303	     -6.70671208	     12.14773559	     -0.31274129	      5.70837238	     -6.14548888	    -12.60279283	     -8.98159660	     15.03299119	      8.53602866	      6.29236952	      2.01716013	     12.72104557
      0.15000000	     -9.47570102	     -3.14646583	     -1.43726920	     -0.99509914	      0.88247969	     -0.54846775	      8.49044873	     -0.00045822	      4.19746059	     -6.77171311	     12.13072945	     -0.28119514	      5.79928024	     -6.22431866	    -12.69658968	     -9.08115388	     15.10364407	      8.55430358	      6.31708639	      2.06935993	     12.75576723
      0.16000000	     -9.47545347	     -3.15073228	     -1.48048464	     -0.99522799	      0.88248813	     -0.54849643	      8.51231415	      0.00496356	      4.17861938	     -6.78392518	     12.11418745	     -0.27671704	      5.81614237	     -6.23076209	    -12.70186412	     -9.11666229	     15.10093983	      8.55768984	      6.30906382	      2.07406807	     12.79288299
      0.17000000	     -9.48126642	     -3.15882679	     -1.53458708	     -0.99538726	      0.88248581	     -0.54852331	      8.55925631	      0.01800281	      4.21256013	     -6.82887776	     12.09267974	     -0.26475922	      5.84690653	     -6.24507613	    -12.76768744	     -9.16402834	     15.12038283	      8.55969358	      6.29923734	      2.08695507	     12.82264691
      0.18000000	     -9.48113287	     -3.16070726	     -1.55598866	     -0.99545997	      0.88249266	     -0.54865710	      8.56538905	      0.01234367	      4.21143023	     -6.82349992	     12.09418156	     -0.26442608	      5.84955704	     -6.23808027	    -12.76701097	     -9.16831717	     15.12118969	      8.56012031	      6.29505705	      2.09670850	     12.82162851
